<mxfile host="app.diagrams.net" agent="Mozilla/5.0 (Windows NT 10.0; Win64; x64) AppleWebKit/537.36 (KHTML, like Gecko) Chrome/140.0.0.0 Safari/537.36 Edg/140.0.0.0" version="28.2.1">
  <diagram name="Trang-1" id="Ke8p6cNOGk_j2cxPrgOu">
    <mxGraphModel dx="1805" dy="1696" grid="1" gridSize="10" guides="1" tooltips="1" connect="1" arrows="1" fold="1" page="1" pageScale="1" pageWidth="827" pageHeight="1169" math="0" shadow="0">
      <root>
        <mxCell id="0" />
        <mxCell id="1" parent="0" />
        <mxCell id="SwiX0a9oxXMqVxmIanMg-1" value="Độc giả" style="shape=umlActor;verticalLabelPosition=bottom;verticalAlign=top;html=1;outlineConnect=0;" vertex="1" parent="1">
          <mxGeometry x="827" y="270" width="30" height="60" as="geometry" />
        </mxCell>
        <mxCell id="SwiX0a9oxXMqVxmIanMg-2" value="Quản trị" style="shape=umlActor;verticalLabelPosition=bottom;verticalAlign=top;html=1;outlineConnect=0;" vertex="1" parent="1">
          <mxGeometry x="-20" y="280" width="30" height="60" as="geometry" />
        </mxCell>
        <mxCell id="SwiX0a9oxXMqVxmIanMg-3" value="Thủ thư" style="shape=umlActor;verticalLabelPosition=bottom;verticalAlign=top;html=1;outlineConnect=0;" vertex="1" parent="1">
          <mxGeometry x="20" y="40" width="30" height="60" as="geometry" />
        </mxCell>
        <mxCell id="SwiX0a9oxXMqVxmIanMg-5" value="" style="rounded=0;whiteSpace=wrap;html=1;" vertex="1" parent="1">
          <mxGeometry x="90" y="-80" width="610" height="660" as="geometry" />
        </mxCell>
        <mxCell id="SwiX0a9oxXMqVxmIanMg-6" value="Phát sách" style="ellipse;whiteSpace=wrap;html=1;" vertex="1" parent="1">
          <mxGeometry x="210" y="30" width="100" height="40" as="geometry" />
        </mxCell>
        <mxCell id="SwiX0a9oxXMqVxmIanMg-7" value="Duyệt đăng ký mượn" style="ellipse;whiteSpace=wrap;html=1;" vertex="1" parent="1">
          <mxGeometry x="130" y="110" width="100" height="40" as="geometry" />
        </mxCell>
        <mxCell id="SwiX0a9oxXMqVxmIanMg-8" value="Quản lý danh mục sách" style="ellipse;whiteSpace=wrap;html=1;" vertex="1" parent="1">
          <mxGeometry x="360" y="80" width="140" height="40" as="geometry" />
        </mxCell>
        <mxCell id="SwiX0a9oxXMqVxmIanMg-9" value="Nhận trả sách" style="ellipse;whiteSpace=wrap;html=1;" vertex="1" parent="1">
          <mxGeometry x="140" y="-60" width="100" height="40" as="geometry" />
        </mxCell>
        <mxCell id="SwiX0a9oxXMqVxmIanMg-10" value="Tính/ghi phạt" style="ellipse;whiteSpace=wrap;html=1;" vertex="1" parent="1">
          <mxGeometry x="390" y="-60" width="100" height="40" as="geometry" />
        </mxCell>
        <mxCell id="SwiX0a9oxXMqVxmIanMg-11" value="Quản lý người dùng" style="ellipse;whiteSpace=wrap;html=1;" vertex="1" parent="1">
          <mxGeometry x="180" y="320" width="100" height="40" as="geometry" />
        </mxCell>
        <mxCell id="SwiX0a9oxXMqVxmIanMg-12" value="Báo cáo - thống kê" style="ellipse;whiteSpace=wrap;html=1;" vertex="1" parent="1">
          <mxGeometry x="150" y="170" width="100" height="40" as="geometry" />
        </mxCell>
        <mxCell id="SwiX0a9oxXMqVxmIanMg-14" value="Sao lưu/khôi phục" style="ellipse;whiteSpace=wrap;html=1;" vertex="1" parent="1">
          <mxGeometry x="180" y="240" width="100" height="40" as="geometry" />
        </mxCell>
        <mxCell id="SwiX0a9oxXMqVxmIanMg-15" value="Cấu hình quy định" style="ellipse;whiteSpace=wrap;html=1;" vertex="1" parent="1">
          <mxGeometry x="130" y="410" width="100" height="40" as="geometry" />
        </mxCell>
        <mxCell id="SwiX0a9oxXMqVxmIanMg-16" value="Đăng nhập" style="ellipse;whiteSpace=wrap;html=1;" vertex="1" parent="1">
          <mxGeometry x="345" y="390" width="100" height="40" as="geometry" />
        </mxCell>
        <mxCell id="SwiX0a9oxXMqVxmIanMg-17" value="Tìm kiếm sách" style="ellipse;whiteSpace=wrap;html=1;" vertex="1" parent="1">
          <mxGeometry x="530" y="240" width="100" height="40" as="geometry" />
        </mxCell>
        <mxCell id="SwiX0a9oxXMqVxmIanMg-18" value="Đăng ký tài khoản" style="ellipse;whiteSpace=wrap;html=1;" vertex="1" parent="1">
          <mxGeometry x="580" y="160" width="100" height="40" as="geometry" />
        </mxCell>
        <mxCell id="SwiX0a9oxXMqVxmIanMg-19" value="Xem lịch sử mượn" style="ellipse;whiteSpace=wrap;html=1;" vertex="1" parent="1">
          <mxGeometry x="570" y="490" width="100" height="40" as="geometry" />
        </mxCell>
        <mxCell id="SwiX0a9oxXMqVxmIanMg-20" value="Đăng ký mượn sách in" style="ellipse;whiteSpace=wrap;html=1;" vertex="1" parent="1">
          <mxGeometry x="490" y="330" width="100" height="40" as="geometry" />
        </mxCell>
        <mxCell id="SwiX0a9oxXMqVxmIanMg-21" value="Đọc ebook online" style="ellipse;whiteSpace=wrap;html=1;" vertex="1" parent="1">
          <mxGeometry x="530" y="430" width="100" height="40" as="geometry" />
        </mxCell>
        <mxCell id="SwiX0a9oxXMqVxmIanMg-22" value="" style="endArrow=classic;html=1;rounded=0;entryX=0;entryY=0.5;entryDx=0;entryDy=0;exitX=1;exitY=0.3333333333333333;exitDx=0;exitDy=0;exitPerimeter=0;" edge="1" parent="1" source="SwiX0a9oxXMqVxmIanMg-3" target="SwiX0a9oxXMqVxmIanMg-9">
          <mxGeometry width="50" height="50" relative="1" as="geometry">
            <mxPoint x="400" y="230" as="sourcePoint" />
            <mxPoint x="450" y="180" as="targetPoint" />
          </mxGeometry>
        </mxCell>
        <mxCell id="SwiX0a9oxXMqVxmIanMg-23" value="" style="endArrow=classic;html=1;rounded=0;entryX=0;entryY=0.5;entryDx=0;entryDy=0;exitX=1;exitY=0.3333333333333333;exitDx=0;exitDy=0;exitPerimeter=0;" edge="1" parent="1" source="SwiX0a9oxXMqVxmIanMg-3" target="SwiX0a9oxXMqVxmIanMg-6">
          <mxGeometry width="50" height="50" relative="1" as="geometry">
            <mxPoint x="110" y="100" as="sourcePoint" />
            <mxPoint x="290" y="20" as="targetPoint" />
          </mxGeometry>
        </mxCell>
        <mxCell id="SwiX0a9oxXMqVxmIanMg-24" value="" style="endArrow=classic;html=1;rounded=0;entryX=0;entryY=0.5;entryDx=0;entryDy=0;exitX=1;exitY=0.3333333333333333;exitDx=0;exitDy=0;exitPerimeter=0;" edge="1" parent="1" source="SwiX0a9oxXMqVxmIanMg-3" target="SwiX0a9oxXMqVxmIanMg-7">
          <mxGeometry width="50" height="50" relative="1" as="geometry">
            <mxPoint x="110" y="190" as="sourcePoint" />
            <mxPoint x="290" y="110" as="targetPoint" />
          </mxGeometry>
        </mxCell>
        <mxCell id="SwiX0a9oxXMqVxmIanMg-25" value="" style="endArrow=classic;html=1;rounded=0;entryX=0;entryY=0.5;entryDx=0;entryDy=0;exitX=1;exitY=0.3333333333333333;exitDx=0;exitDy=0;exitPerimeter=0;" edge="1" parent="1" source="SwiX0a9oxXMqVxmIanMg-3" target="SwiX0a9oxXMqVxmIanMg-8">
          <mxGeometry width="50" height="50" relative="1" as="geometry">
            <mxPoint x="400" y="230" as="sourcePoint" />
            <mxPoint x="450" y="180" as="targetPoint" />
          </mxGeometry>
        </mxCell>
        <mxCell id="SwiX0a9oxXMqVxmIanMg-26" value="" style="endArrow=classic;html=1;rounded=0;entryX=0;entryY=0.5;entryDx=0;entryDy=0;exitX=1;exitY=0.3333333333333333;exitDx=0;exitDy=0;exitPerimeter=0;" edge="1" parent="1" source="SwiX0a9oxXMqVxmIanMg-3" target="SwiX0a9oxXMqVxmIanMg-10">
          <mxGeometry width="50" height="50" relative="1" as="geometry">
            <mxPoint x="120" y="210" as="sourcePoint" />
            <mxPoint x="300" y="130" as="targetPoint" />
          </mxGeometry>
        </mxCell>
        <mxCell id="SwiX0a9oxXMqVxmIanMg-27" value="extend" style="html=1;verticalAlign=bottom;endArrow=block;curved=0;rounded=0;entryX=0;entryY=0.5;entryDx=0;entryDy=0;exitX=1;exitY=0.5;exitDx=0;exitDy=0;" edge="1" parent="1" source="SwiX0a9oxXMqVxmIanMg-7" target="SwiX0a9oxXMqVxmIanMg-8">
          <mxGeometry width="80" relative="1" as="geometry">
            <mxPoint x="380" y="210" as="sourcePoint" />
            <mxPoint x="460" y="210" as="targetPoint" />
          </mxGeometry>
        </mxCell>
        <mxCell id="SwiX0a9oxXMqVxmIanMg-28" value="extend" style="html=1;verticalAlign=bottom;endArrow=block;curved=0;rounded=0;entryX=0;entryY=0.5;entryDx=0;entryDy=0;exitX=1;exitY=0.5;exitDx=0;exitDy=0;" edge="1" parent="1" source="SwiX0a9oxXMqVxmIanMg-9" target="SwiX0a9oxXMqVxmIanMg-10">
          <mxGeometry width="80" relative="1" as="geometry">
            <mxPoint x="460" y="170" as="sourcePoint" />
            <mxPoint x="540" y="160" as="targetPoint" />
          </mxGeometry>
        </mxCell>
        <mxCell id="SwiX0a9oxXMqVxmIanMg-29" value="include" style="html=1;verticalAlign=bottom;endArrow=block;curved=0;rounded=0;entryX=0;entryY=0.5;entryDx=0;entryDy=0;exitX=1;exitY=0.5;exitDx=0;exitDy=0;" edge="1" parent="1" source="SwiX0a9oxXMqVxmIanMg-6" target="SwiX0a9oxXMqVxmIanMg-8">
          <mxGeometry width="80" relative="1" as="geometry">
            <mxPoint x="310" y="30" as="sourcePoint" />
            <mxPoint x="390" y="20" as="targetPoint" />
          </mxGeometry>
        </mxCell>
        <mxCell id="SwiX0a9oxXMqVxmIanMg-30" value="" style="endArrow=classic;html=1;rounded=0;entryX=0;entryY=0.5;entryDx=0;entryDy=0;exitX=1;exitY=0.3333333333333333;exitDx=0;exitDy=0;exitPerimeter=0;" edge="1" parent="1" source="SwiX0a9oxXMqVxmIanMg-2" target="SwiX0a9oxXMqVxmIanMg-14">
          <mxGeometry width="50" height="50" relative="1" as="geometry">
            <mxPoint x="400" y="370" as="sourcePoint" />
            <mxPoint x="450" y="320" as="targetPoint" />
          </mxGeometry>
        </mxCell>
        <mxCell id="SwiX0a9oxXMqVxmIanMg-31" value="" style="endArrow=classic;html=1;rounded=0;entryX=0;entryY=0.5;entryDx=0;entryDy=0;exitX=1;exitY=0.3333333333333333;exitDx=0;exitDy=0;exitPerimeter=0;" edge="1" parent="1" source="SwiX0a9oxXMqVxmIanMg-2" target="SwiX0a9oxXMqVxmIanMg-11">
          <mxGeometry width="50" height="50" relative="1" as="geometry">
            <mxPoint x="110" y="360" as="sourcePoint" />
            <mxPoint x="200" y="320" as="targetPoint" />
          </mxGeometry>
        </mxCell>
        <mxCell id="SwiX0a9oxXMqVxmIanMg-32" value="" style="endArrow=classic;html=1;rounded=0;entryX=0;entryY=0.5;entryDx=0;entryDy=0;exitX=1;exitY=0.3333333333333333;exitDx=0;exitDy=0;exitPerimeter=0;" edge="1" parent="1" source="SwiX0a9oxXMqVxmIanMg-2" target="SwiX0a9oxXMqVxmIanMg-15">
          <mxGeometry width="50" height="50" relative="1" as="geometry">
            <mxPoint x="220" y="350" as="sourcePoint" />
            <mxPoint x="340" y="370" as="targetPoint" />
          </mxGeometry>
        </mxCell>
        <mxCell id="SwiX0a9oxXMqVxmIanMg-33" value="" style="endArrow=classic;html=1;rounded=0;entryX=0;entryY=0.5;entryDx=0;entryDy=0;exitX=1;exitY=0.3333333333333333;exitDx=0;exitDy=0;exitPerimeter=0;" edge="1" parent="1" source="SwiX0a9oxXMqVxmIanMg-2" target="SwiX0a9oxXMqVxmIanMg-12">
          <mxGeometry width="50" height="50" relative="1" as="geometry">
            <mxPoint x="170" y="340" as="sourcePoint" />
            <mxPoint x="280" y="430" as="targetPoint" />
          </mxGeometry>
        </mxCell>
        <mxCell id="SwiX0a9oxXMqVxmIanMg-34" value="" style="endArrow=classic;html=1;rounded=0;entryX=1;entryY=0.5;entryDx=0;entryDy=0;exitX=0;exitY=0.3333333333333333;exitDx=0;exitDy=0;exitPerimeter=0;" edge="1" parent="1" source="SwiX0a9oxXMqVxmIanMg-1" target="SwiX0a9oxXMqVxmIanMg-18">
          <mxGeometry width="50" height="50" relative="1" as="geometry">
            <mxPoint x="400" y="440" as="sourcePoint" />
            <mxPoint x="450" y="390" as="targetPoint" />
          </mxGeometry>
        </mxCell>
        <mxCell id="SwiX0a9oxXMqVxmIanMg-35" value="" style="endArrow=classic;html=1;rounded=0;entryX=1;entryY=0.5;entryDx=0;entryDy=0;exitX=0;exitY=0.3333333333333333;exitDx=0;exitDy=0;exitPerimeter=0;" edge="1" parent="1" source="SwiX0a9oxXMqVxmIanMg-1" target="SwiX0a9oxXMqVxmIanMg-17">
          <mxGeometry width="50" height="50" relative="1" as="geometry">
            <mxPoint x="810" y="300" as="sourcePoint" />
            <mxPoint x="760" y="300" as="targetPoint" />
          </mxGeometry>
        </mxCell>
        <mxCell id="SwiX0a9oxXMqVxmIanMg-36" value="" style="endArrow=classic;html=1;rounded=0;entryX=1;entryY=0.5;entryDx=0;entryDy=0;exitX=0;exitY=0.3333333333333333;exitDx=0;exitDy=0;exitPerimeter=0;" edge="1" parent="1" source="SwiX0a9oxXMqVxmIanMg-1" target="SwiX0a9oxXMqVxmIanMg-20">
          <mxGeometry width="50" height="50" relative="1" as="geometry">
            <mxPoint x="927" y="450" as="sourcePoint" />
            <mxPoint x="780" y="340" as="targetPoint" />
          </mxGeometry>
        </mxCell>
        <mxCell id="SwiX0a9oxXMqVxmIanMg-37" value="" style="endArrow=classic;html=1;rounded=0;entryX=1;entryY=0.5;entryDx=0;entryDy=0;exitX=0;exitY=0.3333333333333333;exitDx=0;exitDy=0;exitPerimeter=0;" edge="1" parent="1" source="SwiX0a9oxXMqVxmIanMg-1" target="SwiX0a9oxXMqVxmIanMg-21">
          <mxGeometry width="50" height="50" relative="1" as="geometry">
            <mxPoint x="820" y="290" as="sourcePoint" />
            <mxPoint x="750" y="360" as="targetPoint" />
          </mxGeometry>
        </mxCell>
        <mxCell id="SwiX0a9oxXMqVxmIanMg-38" value="" style="endArrow=classic;html=1;rounded=0;entryX=1;entryY=0.5;entryDx=0;entryDy=0;exitX=0;exitY=0.3333333333333333;exitDx=0;exitDy=0;exitPerimeter=0;" edge="1" parent="1" source="SwiX0a9oxXMqVxmIanMg-1" target="SwiX0a9oxXMqVxmIanMg-19">
          <mxGeometry width="50" height="50" relative="1" as="geometry">
            <mxPoint x="787" y="460" as="sourcePoint" />
            <mxPoint x="640" y="350" as="targetPoint" />
          </mxGeometry>
        </mxCell>
        <mxCell id="SwiX0a9oxXMqVxmIanMg-39" value="" style="endArrow=classic;html=1;rounded=0;entryX=1;entryY=0.5;entryDx=0;entryDy=0;exitX=0;exitY=0.3333333333333333;exitDx=0;exitDy=0;exitPerimeter=0;" edge="1" parent="1" source="SwiX0a9oxXMqVxmIanMg-1" target="SwiX0a9oxXMqVxmIanMg-16">
          <mxGeometry width="50" height="50" relative="1" as="geometry">
            <mxPoint x="907" y="540" as="sourcePoint" />
            <mxPoint x="760" y="430" as="targetPoint" />
          </mxGeometry>
        </mxCell>
        <mxCell id="SwiX0a9oxXMqVxmIanMg-40" value="include" style="html=1;verticalAlign=bottom;endArrow=block;curved=0;rounded=0;entryX=1;entryY=0;entryDx=0;entryDy=0;exitX=0;exitY=0.5;exitDx=0;exitDy=0;" edge="1" parent="1" source="SwiX0a9oxXMqVxmIanMg-20" target="SwiX0a9oxXMqVxmIanMg-16">
          <mxGeometry width="80" relative="1" as="geometry">
            <mxPoint x="510" y="20" as="sourcePoint" />
            <mxPoint x="660" y="20" as="targetPoint" />
          </mxGeometry>
        </mxCell>
        <mxCell id="SwiX0a9oxXMqVxmIanMg-41" value="include" style="html=1;verticalAlign=bottom;endArrow=block;curved=0;rounded=0;entryX=1;entryY=1;entryDx=0;entryDy=0;exitX=0;exitY=0.5;exitDx=0;exitDy=0;" edge="1" parent="1" source="SwiX0a9oxXMqVxmIanMg-21" target="SwiX0a9oxXMqVxmIanMg-16">
          <mxGeometry width="80" relative="1" as="geometry">
            <mxPoint x="711" y="300" as="sourcePoint" />
            <mxPoint x="670" y="366" as="targetPoint" />
          </mxGeometry>
        </mxCell>
      </root>
    </mxGraphModel>
  </diagram>
</mxfile>
